<svg xmlns="http://www.w3.org/2000/svg" viewBox="0 0 380 268" width="380" height="268"><g transform="translate(190,90) scale(1.42) translate(-47,-53)"><ellipse cx="47" cy="53" rx="38" ry="33.5" transform="rotate(-5 47 53)" fill="none" stroke="#2A2E6E" stroke-width="2.2" opacity="0.55" stroke-dasharray="6 5"></ellipse><ellipse cx="46" cy="54" rx="30" ry="26.5" transform="rotate(-6 46 54)" fill="none" stroke="#2A2E6E" stroke-width="2.4" opacity="0.8"></ellipse><ellipse cx="45" cy="55" rx="22.5" ry="20" transform="rotate(-8 45 55)" fill="none" stroke="#2A2E6E" stroke-width="3.6"></ellipse><ellipse cx="44" cy="56" rx="15" ry="13.6" transform="rotate(-12 44 56)" fill="none" stroke="#2A2E6E" stroke-width="4.4"></ellipse><ellipse cx="44" cy="56" rx="8.6" ry="8" fill="#D98A2B"></ellipse></g><path d="M81.06 236.40L74.51 236.40L74.51 200.21L81.06 200.21L81.06 203.95L82.00 203.95Q83.04 201.82 85.04 200.65Q87.04 199.48 90.06 199.48L90.06 199.48Q93.12 199.48 95.67 201.04Q98.22 202.60 99.78 205.54Q101.34 208.48 101.34 212.64L101.34 212.64L101.34 213.57Q101.34 217.78 99.83 220.72Q98.32 223.66 95.78 225.19Q93.23 226.73 90.06 226.73L90.06 226.73Q86.57 226.73 84.73 225.35Q82.88 223.97 82.00 222.26L82.00 222.26L81.06 222.26L81.06 236.40ZM87.92 220.49L87.92 220.49Q90.99 220.49 92.89 218.56Q94.79 216.64 94.79 213.42L94.79 213.42L94.79 212.79Q94.79 209.57 92.89 207.64Q90.99 205.72 87.92 205.72L87.92 205.72Q84.91 205.72 82.98 207.67Q81.06 209.62 81.06 212.79L81.06 212.79L81.06 213.42Q81.06 216.59 82.98 218.54Q84.91 220.49 87.92 220.49Z M126.04 236.40L108.67 236.40L108.67 230.16L122.09 230.16Q123.49 230.16 123.49 228.60L123.49 228.60L123.49 222.26L122.56 222.26Q121.78 223.97 119.98 225.35Q118.19 226.73 114.50 226.73L114.50 226.73Q111.32 226.73 108.78 225.19Q106.23 223.66 104.72 220.72Q103.21 217.78 103.21 213.57L103.21 213.57L103.21 212.64Q103.21 208.48 104.80 205.54Q106.38 202.60 109.01 201.04Q111.64 199.48 114.76 199.48L114.76 199.48Q117.88 199.48 119.72 200.65Q121.57 201.82 122.56 203.95L122.56 203.95L123.49 203.95L123.49 200.21L130.04 200.21L130.04 232.34Q130.04 234.11 128.93 235.26Q127.81 236.40 126.04 236.40L126.04 236.40ZM116.63 220.49L116.63 220.49Q119.70 220.49 121.59 218.54Q123.49 216.59 123.49 213.42L123.49 213.42L123.49 212.79Q123.49 209.62 121.59 207.67Q119.70 205.72 116.63 205.72L116.63 205.72Q113.61 205.72 111.69 207.64Q109.76 209.57 109.76 212.79L109.76 212.79L109.76 213.42Q109.76 216.64 111.69 218.56Q113.61 220.49 116.63 220.49Z" fill="#2A2E6E"></path><path d="M146.16 211.44L146.16 211.44Q144.71 211.44 143.62 210.35Q142.52 209.26 142.52 207.80L142.52 207.80Q142.52 206.29 143.62 205.23Q144.71 204.16 146.16 204.16L146.16 204.16Q147.67 204.16 148.74 205.23Q149.80 206.29 149.80 207.80L149.80 207.80Q149.80 209.26 148.74 210.35Q147.67 211.44 146.16 211.44Z" fill="#2A2E6E"></path><path d="M167.90 226L161.35 226L161.35 200.21L167.90 200.21L167.90 202.70L168.84 202.70Q169.15 201.30 170.29 200.39Q171.44 199.48 173.20 199.48L173.20 199.48Q174.92 199.48 176.14 200.39Q177.36 201.30 177.73 202.70L177.73 202.70L178.66 202.70Q179.08 201.30 180.43 200.39Q181.78 199.48 183.71 199.48L183.71 199.48Q186.31 199.48 187.87 201.22Q189.43 202.96 189.43 206.03L189.43 206.03L189.43 226L182.88 226L182.88 207.90Q182.88 206.81 182.33 206.27Q181.78 205.72 180.90 205.72L180.90 205.72Q179.91 205.72 179.29 206.34Q178.66 206.97 178.66 208.22L178.66 208.22L178.66 226L172.11 226L172.11 207.90Q172.11 206.81 171.51 206.27Q170.92 205.72 170.08 205.72L170.08 205.72Q169.15 205.72 168.52 206.34Q167.90 206.97 167.90 208.22L167.90 208.22L167.90 226Z M199.31 226L192.76 226L192.76 200.21L199.31 200.21L199.31 204.06L200.24 204.06Q201.13 201.87 203.10 200.68Q205.08 199.48 207.73 199.48L207.73 199.48Q210.23 199.48 212.28 200.55Q214.34 201.61 215.56 203.87Q216.78 206.14 216.78 209.67L216.78 209.67L216.78 226L210.23 226L210.23 211.34Q210.23 208.58 208.90 206.99Q207.58 205.41 205.08 205.41L205.08 205.41Q202.22 205.41 200.76 207.36Q199.31 209.31 199.31 212.58L199.31 212.58L199.31 226Z M234.10 226.73L234.10 226.73Q230.25 226.73 227.28 225.09Q224.32 223.45 222.66 220.38Q220.99 217.32 220.99 213L220.99 213L220.99 212.69Q220.99 208.74 222.76 205.77Q224.53 202.81 227.47 201.14Q230.40 199.48 233.99 199.48L233.99 199.48Q237.32 199.48 239.71 200.62Q242.10 201.77 243.64 203.59Q245.17 205.41 245.93 207.57Q246.68 209.72 246.68 211.75L246.68 211.75L246.68 215.24L227.75 215.24Q227.86 217.52 229.68 219.01Q231.50 220.49 233.99 220.49L233.99 220.49Q236.44 220.49 237.76 219.60Q239.09 218.72 239.61 217.58L239.61 217.58L245.22 220.70Q244.65 222.00 243.33 223.40Q242.00 224.80 239.76 225.77Q237.53 226.73 234.10 226.73ZM227.86 209.62L227.86 209.62L240.02 209.62Q239.71 207.80 238.07 206.60Q236.44 205.41 233.94 205.41L233.94 205.41Q231.50 205.41 229.91 206.68Q228.32 207.96 227.86 209.62Z M255.57 226L249.02 226L249.02 200.21L255.57 200.21L255.57 202.70L256.51 202.70Q256.82 201.30 257.96 200.39Q259.11 199.48 260.88 199.48L260.88 199.48Q262.59 199.48 263.81 200.39Q265.04 201.30 265.40 202.70L265.40 202.70L266.34 202.70Q266.75 201.30 268.10 200.39Q269.46 199.48 271.38 199.48L271.38 199.48Q273.98 199.48 275.54 201.22Q277.10 202.96 277.10 206.03L277.10 206.03L277.10 226L270.55 226L270.55 207.90Q270.55 206.81 270.00 206.27Q269.46 205.72 268.57 205.72L268.57 205.72Q267.58 205.72 266.96 206.34Q266.34 206.97 266.34 208.22L266.34 208.22L266.34 226L259.78 226L259.78 207.90Q259.78 206.81 259.19 206.27Q258.59 205.72 257.76 205.72L257.76 205.72Q256.82 205.72 256.20 206.34Q255.57 206.97 255.57 208.22L255.57 208.22L255.57 226Z M292.28 226.73L292.28 226.73Q288.75 226.73 285.68 225.17Q282.61 223.61 280.74 220.64Q278.87 217.68 278.87 213.42L278.87 213.42L278.87 212.79Q278.87 208.58 280.74 205.59Q282.61 202.60 285.68 201.04Q288.75 199.48 292.28 199.48L292.28 199.48Q295.82 199.48 298.89 201.04Q301.96 202.60 303.83 205.59Q305.70 208.58 305.70 212.79L305.70 212.79L305.70 213.42Q305.70 217.68 303.83 220.64Q301.96 223.61 298.89 225.17Q295.82 226.73 292.28 226.73ZM292.28 220.49L292.28 220.49Q295.14 220.49 297.15 218.64Q299.15 216.80 299.15 213.62L299.15 213.62L299.15 212.58Q299.15 209.36 297.15 207.54Q295.14 205.72 292.28 205.72L292.28 205.72Q289.42 205.72 287.42 207.54Q285.42 209.36 285.42 212.58L285.42 212.58L285.42 213.62Q285.42 216.80 287.42 218.64Q289.42 220.49 292.28 220.49Z" fill="#2A2E6E" fill-opacity="0.72"></path></svg>