<svg xmlns="http://www.w3.org/2000/svg" width="2880" height="260" viewBox="0 0 2880 260">
<rect width="100%" height="100%" fill="white"/>
<text x="1440.0" y="20" font-family="sans-serif" font-size="14" font-weight="bold" text-anchor="middle">LongMemEval-S (bge-m3) — version progression</text>
<text x="60" y="60" font-family="sans-serif" font-size="12" font-weight="bold">OVERALL / recall@5</text>
<line x1="60" y1="220" x2="700" y2="220" stroke="#eee" stroke-width="1"/>
<text x="54" y="223" font-family="sans-serif" font-size="9" text-anchor="end" fill="#666">0.79</text>
<line x1="60" y1="182.5" x2="700" y2="182.5" stroke="#eee" stroke-width="1"/>
<text x="54" y="185.5" font-family="sans-serif" font-size="9" text-anchor="end" fill="#666">0.83</text>
<line x1="60" y1="145.0" x2="700" y2="145.0" stroke="#eee" stroke-width="1"/>
<text x="54" y="148.0" font-family="sans-serif" font-size="9" text-anchor="end" fill="#666">0.87</text>
<line x1="60" y1="107.5" x2="700" y2="107.5" stroke="#eee" stroke-width="1"/>
<text x="54" y="110.5" font-family="sans-serif" font-size="9" text-anchor="end" fill="#666">0.92</text>
<line x1="60" y1="70.0" x2="700" y2="70.0" stroke="#eee" stroke-width="1"/>
<text x="54" y="73.0" font-family="sans-serif" font-size="9" text-anchor="end" fill="#666">0.96</text>
<polygon points="60.0,126.2 700.0,116.1 700.0,161.6 60.0,173.9" fill="#000000" fill-opacity="0.12" stroke="none"/>
<polyline points="60.0,150.1 700.0,138.8" fill="none" stroke="#000000" stroke-width="2"/>
<circle cx="60.0" cy="150.1" r="3" fill="#000000"/>
<text x="60.0" y="142.1" font-family="sans-serif" font-size="9" text-anchor="middle" fill="#000000">0.869</text>
<text x="60.0" y="235.0" font-family="sans-serif" font-size="10" text-anchor="middle" fill="#444">0.2.1</text>
<circle cx="700.0" cy="138.8" r="3" fill="#000000"/>
<text x="700.0" y="130.8" font-family="sans-serif" font-size="9" text-anchor="middle" fill="#000000">0.881</text>
<text x="700.0" y="235.0" font-family="sans-serif" font-size="10" text-anchor="middle" fill="#444">0.3.0</text>
<text x="380.0" y="82" font-family="sans-serif" font-size="10" fill="#2ca02c" text-anchor="middle">+1.2pp</text>
<text x="780" y="60" font-family="sans-serif" font-size="12" font-weight="bold">OVERALL / recall@10</text>
<line x1="780" y1="220" x2="1420" y2="220" stroke="#eee" stroke-width="1"/>
<text x="774" y="223" font-family="sans-serif" font-size="9" text-anchor="end" fill="#666">0.86</text>
<line x1="780" y1="182.5" x2="1420" y2="182.5" stroke="#eee" stroke-width="1"/>
<text x="774" y="185.5" font-family="sans-serif" font-size="9" text-anchor="end" fill="#666">0.90</text>
<line x1="780" y1="145.0" x2="1420" y2="145.0" stroke="#eee" stroke-width="1"/>
<text x="774" y="148.0" font-family="sans-serif" font-size="9" text-anchor="end" fill="#666">0.93</text>
<line x1="780" y1="107.5" x2="1420" y2="107.5" stroke="#eee" stroke-width="1"/>
<text x="774" y="110.5" font-family="sans-serif" font-size="9" text-anchor="end" fill="#666">0.97</text>
<line x1="780" y1="70.0" x2="1420" y2="70.0" stroke="#eee" stroke-width="1"/>
<text x="774" y="73.0" font-family="sans-serif" font-size="9" text-anchor="end" fill="#666">1.00</text>
<polygon points="780.0,123.1 1420.0,121.9 1420.0,164.5 780.0,165.1" fill="#000000" fill-opacity="0.12" stroke="none"/>
<polyline points="780.0,144.1 1420.0,143.2" fill="none" stroke="#000000" stroke-width="2"/>
<circle cx="780.0" cy="144.1" r="3" fill="#000000"/>
<text x="780.0" y="136.1" font-family="sans-serif" font-size="9" text-anchor="middle" fill="#000000">0.933</text>
<text x="780.0" y="235.0" font-family="sans-serif" font-size="10" text-anchor="middle" fill="#444">0.2.1</text>
<circle cx="1420.0" cy="143.2" r="3" fill="#000000"/>
<text x="1420.0" y="135.2" font-family="sans-serif" font-size="9" text-anchor="middle" fill="#000000">0.933</text>
<text x="1420.0" y="235.0" font-family="sans-serif" font-size="10" text-anchor="middle" fill="#444">0.3.0</text>
<text x="1500" y="145.0" font-family="sans-serif" font-size="11" fill="#999">no data: OVERALL/recall@25</text>
<text x="2220" y="60" font-family="sans-serif" font-size="12" font-weight="bold">OVERALL / mrr</text>
<line x1="2220" y1="220" x2="2860" y2="220" stroke="#eee" stroke-width="1"/>
<text x="2214" y="223" font-family="sans-serif" font-size="9" text-anchor="end" fill="#666">0.77</text>
<line x1="2220" y1="182.5" x2="2860" y2="182.5" stroke="#eee" stroke-width="1"/>
<text x="2214" y="185.5" font-family="sans-serif" font-size="9" text-anchor="end" fill="#666">0.81</text>
<line x1="2220" y1="145.0" x2="2860" y2="145.0" stroke="#eee" stroke-width="1"/>
<text x="2214" y="148.0" font-family="sans-serif" font-size="9" text-anchor="end" fill="#666">0.85</text>
<line x1="2220" y1="107.5" x2="2860" y2="107.5" stroke="#eee" stroke-width="1"/>
<text x="2214" y="110.5" font-family="sans-serif" font-size="9" text-anchor="end" fill="#666">0.89</text>
<line x1="2220" y1="70.0" x2="2860" y2="70.0" stroke="#eee" stroke-width="1"/>
<text x="2214" y="73.0" font-family="sans-serif" font-size="9" text-anchor="end" fill="#666">0.93</text>
<polygon points="2220.0,116.7 2860.0,124.5 2860.0,173.3 2220.0,165.6" fill="#000000" fill-opacity="0.12" stroke="none"/>
<polyline points="2220.0,141.2 2860.0,148.8" fill="none" stroke="#000000" stroke-width="2"/>
<circle cx="2220.0" cy="141.2" r="3" fill="#000000"/>
<text x="2220.0" y="133.2" font-family="sans-serif" font-size="9" text-anchor="middle" fill="#000000">0.855</text>
<text x="2220.0" y="235.0" font-family="sans-serif" font-size="10" text-anchor="middle" fill="#444">0.2.1</text>
<circle cx="2860.0" cy="148.8" r="3" fill="#000000"/>
<text x="2860.0" y="140.8" font-family="sans-serif" font-size="9" text-anchor="middle" fill="#000000">0.847</text>
<text x="2860.0" y="235.0" font-family="sans-serif" font-size="10" text-anchor="middle" fill="#444">0.3.0</text>
</svg>