<svg xmlns="http://www.w3.org/2000/svg" width="2880" height="1360" viewBox="0 0 2880 1360">
<rect width="100%" height="100%" fill="white"/>
<text x="1440.0" y="20" font-family="sans-serif" font-size="14" font-weight="bold" text-anchor="middle">LoCoMo session-level (paper-canonical) — version progression</text>
<text x="60" y="60" font-family="sans-serif" font-size="12" font-weight="bold">OVERALL / recall@5</text>
<line x1="60" y1="220" x2="700" y2="220" stroke="#eee" stroke-width="1"/>
<text x="54" y="223" font-family="sans-serif" font-size="9" text-anchor="end" fill="#666">0.59</text>
<line x1="60" y1="182.5" x2="700" y2="182.5" stroke="#eee" stroke-width="1"/>
<text x="54" y="185.5" font-family="sans-serif" font-size="9" text-anchor="end" fill="#666">0.63</text>
<line x1="60" y1="145.0" x2="700" y2="145.0" stroke="#eee" stroke-width="1"/>
<text x="54" y="148.0" font-family="sans-serif" font-size="9" text-anchor="end" fill="#666">0.66</text>
<line x1="60" y1="107.5" x2="700" y2="107.5" stroke="#eee" stroke-width="1"/>
<text x="54" y="110.5" font-family="sans-serif" font-size="9" text-anchor="end" fill="#666">0.70</text>
<line x1="60" y1="70.0" x2="700" y2="70.0" stroke="#eee" stroke-width="1"/>
<text x="54" y="73.0" font-family="sans-serif" font-size="9" text-anchor="end" fill="#666">0.73</text>
<polygon points="60.0,125.0 700.0,123.2 700.0,165.0 60.0,166.8" fill="#000000" fill-opacity="0.12" stroke="none"/>
<polyline points="60.0,145.9 700.0,144.0" fill="none" stroke="#000000" stroke-width="2"/>
<circle cx="60.0" cy="145.9" r="3" fill="#000000"/>
<text x="60.0" y="137.9" font-family="sans-serif" font-size="9" text-anchor="middle" fill="#000000">0.662</text>
<text x="60.0" y="235.0" font-family="sans-serif" font-size="10" text-anchor="middle" fill="#444">0.2.1</text>
<circle cx="700.0" cy="144.0" r="3" fill="#000000"/>
<text x="700.0" y="136.0" font-family="sans-serif" font-size="9" text-anchor="middle" fill="#000000">0.664</text>
<text x="700.0" y="235.0" font-family="sans-serif" font-size="10" text-anchor="middle" fill="#444">0.3.0</text>
<text x="780" y="60" font-family="sans-serif" font-size="12" font-weight="bold">OVERALL / recall@10</text>
<line x1="780" y1="220" x2="1420" y2="220" stroke="#eee" stroke-width="1"/>
<text x="774" y="223" font-family="sans-serif" font-size="9" text-anchor="end" fill="#666">0.73</text>
<line x1="780" y1="182.5" x2="1420" y2="182.5" stroke="#eee" stroke-width="1"/>
<text x="774" y="185.5" font-family="sans-serif" font-size="9" text-anchor="end" fill="#666">0.76</text>
<line x1="780" y1="145.0" x2="1420" y2="145.0" stroke="#eee" stroke-width="1"/>
<text x="774" y="148.0" font-family="sans-serif" font-size="9" text-anchor="end" fill="#666">0.80</text>
<line x1="780" y1="107.5" x2="1420" y2="107.5" stroke="#eee" stroke-width="1"/>
<text x="774" y="110.5" font-family="sans-serif" font-size="9" text-anchor="end" fill="#666">0.83</text>
<line x1="780" y1="70.0" x2="1420" y2="70.0" stroke="#eee" stroke-width="1"/>
<text x="774" y="73.0" font-family="sans-serif" font-size="9" text-anchor="end" fill="#666">0.87</text>
<polygon points="780.0,129.1 1420.0,124.7 1420.0,160.5 780.0,165.3" fill="#000000" fill-opacity="0.12" stroke="none"/>
<polyline points="780.0,147.2 1420.0,142.5" fill="none" stroke="#000000" stroke-width="2"/>
<circle cx="780.0" cy="147.2" r="3" fill="#000000"/>
<text x="780.0" y="139.2" font-family="sans-serif" font-size="9" text-anchor="middle" fill="#000000">0.795</text>
<text x="780.0" y="235.0" font-family="sans-serif" font-size="10" text-anchor="middle" fill="#444">0.2.1</text>
<circle cx="1420.0" cy="142.5" r="3" fill="#000000"/>
<text x="1420.0" y="134.5" font-family="sans-serif" font-size="9" text-anchor="middle" fill="#000000">0.799</text>
<text x="1420.0" y="235.0" font-family="sans-serif" font-size="10" text-anchor="middle" fill="#444">0.3.0</text>
<text x="1500" y="60" font-family="sans-serif" font-size="12" font-weight="bold">OVERALL / recall@25</text>
<line x1="1500" y1="220" x2="2140" y2="220" stroke="#eee" stroke-width="1"/>
<text x="1494" y="223" font-family="sans-serif" font-size="9" text-anchor="end" fill="#666">0.90</text>
<line x1="1500" y1="182.5" x2="2140" y2="182.5" stroke="#eee" stroke-width="1"/>
<text x="1494" y="185.5" font-family="sans-serif" font-size="9" text-anchor="end" fill="#666">0.93</text>
<line x1="1500" y1="145.0" x2="2140" y2="145.0" stroke="#eee" stroke-width="1"/>
<text x="1494" y="148.0" font-family="sans-serif" font-size="9" text-anchor="end" fill="#666">0.95</text>
<line x1="1500" y1="107.5" x2="2140" y2="107.5" stroke="#eee" stroke-width="1"/>
<text x="1494" y="110.5" font-family="sans-serif" font-size="9" text-anchor="end" fill="#666">0.98</text>
<line x1="1500" y1="70.0" x2="2140" y2="70.0" stroke="#eee" stroke-width="1"/>
<text x="1494" y="73.0" font-family="sans-serif" font-size="9" text-anchor="end" fill="#666">1.00</text>
<polygon points="1500.0,117.0 2140.0,114.6 2140.0,138.3 1500.0,141.5" fill="#000000" fill-opacity="0.12" stroke="none"/>
<polyline points="1500.0,129.2 2140.0,126.4" fill="none" stroke="#000000" stroke-width="2"/>
<circle cx="1500.0" cy="129.2" r="3" fill="#000000"/>
<text x="1500.0" y="121.2" font-family="sans-serif" font-size="9" text-anchor="middle" fill="#000000">0.962</text>
<text x="1500.0" y="235.0" font-family="sans-serif" font-size="10" text-anchor="middle" fill="#444">0.2.1</text>
<circle cx="2140.0" cy="126.4" r="3" fill="#000000"/>
<text x="2140.0" y="118.4" font-family="sans-serif" font-size="9" text-anchor="middle" fill="#000000">0.964</text>
<text x="2140.0" y="235.0" font-family="sans-serif" font-size="10" text-anchor="middle" fill="#444">0.3.0</text>
<text x="2220" y="60" font-family="sans-serif" font-size="12" font-weight="bold">OVERALL / mrr</text>
<line x1="2220" y1="220" x2="2860" y2="220" stroke="#eee" stroke-width="1"/>
<text x="2214" y="223" font-family="sans-serif" font-size="9" text-anchor="end" fill="#666">0.48</text>
<line x1="2220" y1="182.5" x2="2860" y2="182.5" stroke="#eee" stroke-width="1"/>
<text x="2214" y="185.5" font-family="sans-serif" font-size="9" text-anchor="end" fill="#666">0.52</text>
<line x1="2220" y1="145.0" x2="2860" y2="145.0" stroke="#eee" stroke-width="1"/>
<text x="2214" y="148.0" font-family="sans-serif" font-size="9" text-anchor="end" fill="#666">0.55</text>
<line x1="2220" y1="107.5" x2="2860" y2="107.5" stroke="#eee" stroke-width="1"/>
<text x="2214" y="110.5" font-family="sans-serif" font-size="9" text-anchor="end" fill="#666">0.59</text>
<line x1="2220" y1="70.0" x2="2860" y2="70.0" stroke="#eee" stroke-width="1"/>
<text x="2214" y="73.0" font-family="sans-serif" font-size="9" text-anchor="end" fill="#666">0.62</text>
<polygon points="2220.0,131.4 2860.0,122.2 2860.0,158.6 2220.0,167.8" fill="#000000" fill-opacity="0.12" stroke="none"/>
<polyline points="2220.0,149.7 2860.0,140.4" fill="none" stroke="#000000" stroke-width="2"/>
<circle cx="2220.0" cy="149.7" r="3" fill="#000000"/>
<text x="2220.0" y="141.7" font-family="sans-serif" font-size="9" text-anchor="middle" fill="#000000">0.548</text>
<text x="2220.0" y="235.0" font-family="sans-serif" font-size="10" text-anchor="middle" fill="#444">0.2.1</text>
<circle cx="2860.0" cy="140.4" r="3" fill="#000000"/>
<text x="2860.0" y="132.4" font-family="sans-serif" font-size="9" text-anchor="middle" fill="#000000">0.557</text>
<text x="2860.0" y="235.0" font-family="sans-serif" font-size="10" text-anchor="middle" fill="#444">0.3.0</text>
<text x="60" y="280" font-family="sans-serif" font-size="12" font-weight="bold">single_hop / recall@5</text>
<line x1="60" y1="440" x2="700" y2="440" stroke="#eee" stroke-width="1"/>
<text x="54" y="443" font-family="sans-serif" font-size="9" text-anchor="end" fill="#666">0.40</text>
<line x1="60" y1="402.5" x2="700" y2="402.5" stroke="#eee" stroke-width="1"/>
<text x="54" y="405.5" font-family="sans-serif" font-size="9" text-anchor="end" fill="#666">0.45</text>
<line x1="60" y1="365.0" x2="700" y2="365.0" stroke="#eee" stroke-width="1"/>
<text x="54" y="368.0" font-family="sans-serif" font-size="9" text-anchor="end" fill="#666">0.50</text>
<line x1="60" y1="327.5" x2="700" y2="327.5" stroke="#eee" stroke-width="1"/>
<text x="54" y="330.5" font-family="sans-serif" font-size="9" text-anchor="end" fill="#666">0.54</text>
<line x1="60" y1="290.0" x2="700" y2="290.0" stroke="#eee" stroke-width="1"/>
<text x="54" y="293.0" font-family="sans-serif" font-size="9" text-anchor="end" fill="#666">0.59</text>
<polygon points="60.0,328.8 700.0,340.7 700.0,401.2 60.0,389.5" fill="#1f77b4" fill-opacity="0.12" stroke="none"/>
<polyline points="60.0,359.1 700.0,371.0" fill="none" stroke="#1f77b4" stroke-width="2"/>
<circle cx="60.0" cy="359.1" r="3" fill="#1f77b4"/>
<text x="60.0" y="351.1" font-family="sans-serif" font-size="9" text-anchor="middle" fill="#1f77b4">0.503</text>
<text x="60.0" y="455.0" font-family="sans-serif" font-size="10" text-anchor="middle" fill="#444">0.2.1</text>
<circle cx="700.0" cy="371.0" r="3" fill="#1f77b4"/>
<text x="700.0" y="363.0" font-family="sans-serif" font-size="9" text-anchor="middle" fill="#1f77b4">0.488</text>
<text x="700.0" y="455.0" font-family="sans-serif" font-size="10" text-anchor="middle" fill="#444">0.3.0</text>
<text x="380.0" y="302" font-family="sans-serif" font-size="10" fill="#d62728" text-anchor="middle">-1.5pp</text>
<text x="780" y="280" font-family="sans-serif" font-size="12" font-weight="bold">single_hop / recall@10</text>
<line x1="780" y1="440" x2="1420" y2="440" stroke="#eee" stroke-width="1"/>
<text x="774" y="443" font-family="sans-serif" font-size="9" text-anchor="end" fill="#666">0.59</text>
<line x1="780" y1="402.5" x2="1420" y2="402.5" stroke="#eee" stroke-width="1"/>
<text x="774" y="405.5" font-family="sans-serif" font-size="9" text-anchor="end" fill="#666">0.63</text>
<line x1="780" y1="365.0" x2="1420" y2="365.0" stroke="#eee" stroke-width="1"/>
<text x="774" y="368.0" font-family="sans-serif" font-size="9" text-anchor="end" fill="#666">0.68</text>
<line x1="780" y1="327.5" x2="1420" y2="327.5" stroke="#eee" stroke-width="1"/>
<text x="774" y="330.5" font-family="sans-serif" font-size="9" text-anchor="end" fill="#666">0.72</text>
<line x1="780" y1="290.0" x2="1420" y2="290.0" stroke="#eee" stroke-width="1"/>
<text x="774" y="293.0" font-family="sans-serif" font-size="9" text-anchor="end" fill="#666">0.77</text>
<polygon points="780.0,332.0 1420.0,339.4 1420.0,398.0 780.0,392.2" fill="#1f77b4" fill-opacity="0.12" stroke="none"/>
<polyline points="780.0,362.1 1420.0,368.7" fill="none" stroke="#1f77b4" stroke-width="2"/>
<circle cx="780.0" cy="362.1" r="3" fill="#1f77b4"/>
<text x="780.0" y="354.1" font-family="sans-serif" font-size="9" text-anchor="middle" fill="#1f77b4">0.681</text>
<text x="780.0" y="455.0" font-family="sans-serif" font-size="10" text-anchor="middle" fill="#444">0.2.1</text>
<circle cx="1420.0" cy="368.7" r="3" fill="#1f77b4"/>
<text x="1420.0" y="360.7" font-family="sans-serif" font-size="9" text-anchor="middle" fill="#1f77b4">0.673</text>
<text x="1420.0" y="455.0" font-family="sans-serif" font-size="10" text-anchor="middle" fill="#444">0.3.0</text>
<text x="1500" y="280" font-family="sans-serif" font-size="12" font-weight="bold">single_hop / recall@25</text>
<line x1="1500" y1="440" x2="2140" y2="440" stroke="#eee" stroke-width="1"/>
<text x="1494" y="443" font-family="sans-serif" font-size="9" text-anchor="end" fill="#666">0.86</text>
<line x1="1500" y1="402.5" x2="2140" y2="402.5" stroke="#eee" stroke-width="1"/>
<text x="1494" y="405.5" font-family="sans-serif" font-size="9" text-anchor="end" fill="#666">0.90</text>
<line x1="1500" y1="365.0" x2="2140" y2="365.0" stroke="#eee" stroke-width="1"/>
<text x="1494" y="368.0" font-family="sans-serif" font-size="9" text-anchor="end" fill="#666">0.93</text>
<line x1="1500" y1="327.5" x2="2140" y2="327.5" stroke="#eee" stroke-width="1"/>
<text x="1494" y="330.5" font-family="sans-serif" font-size="9" text-anchor="end" fill="#666">0.97</text>
<line x1="1500" y1="290.0" x2="2140" y2="290.0" stroke="#eee" stroke-width="1"/>
<text x="1494" y="293.0" font-family="sans-serif" font-size="9" text-anchor="end" fill="#666">1.00</text>
<polygon points="1500.0,340.9 2140.0,341.8 2140.0,384.8 1500.0,383.6" fill="#1f77b4" fill-opacity="0.12" stroke="none"/>
<polyline points="1500.0,362.3 2140.0,363.3" fill="none" stroke="#1f77b4" stroke-width="2"/>
<circle cx="1500.0" cy="362.3" r="3" fill="#1f77b4"/>
<text x="1500.0" y="354.3" font-family="sans-serif" font-size="9" text-anchor="middle" fill="#1f77b4">0.934</text>
<text x="1500.0" y="455.0" font-family="sans-serif" font-size="10" text-anchor="middle" fill="#444">0.2.1</text>
<circle cx="2140.0" cy="363.3" r="3" fill="#1f77b4"/>
<text x="2140.0" y="355.3" font-family="sans-serif" font-size="9" text-anchor="middle" fill="#1f77b4">0.934</text>
<text x="2140.0" y="455.0" font-family="sans-serif" font-size="10" text-anchor="middle" fill="#444">0.3.0</text>
<text x="2220" y="280" font-family="sans-serif" font-size="12" font-weight="bold">single_hop / mrr</text>
<line x1="2220" y1="440" x2="2860" y2="440" stroke="#eee" stroke-width="1"/>
<text x="2214" y="443" font-family="sans-serif" font-size="9" text-anchor="end" fill="#666">0.49</text>
<line x1="2220" y1="402.5" x2="2860" y2="402.5" stroke="#eee" stroke-width="1"/>
<text x="2214" y="405.5" font-family="sans-serif" font-size="9" text-anchor="end" fill="#666">0.54</text>
<line x1="2220" y1="365.0" x2="2860" y2="365.0" stroke="#eee" stroke-width="1"/>
<text x="2214" y="368.0" font-family="sans-serif" font-size="9" text-anchor="end" fill="#666">0.59</text>
<line x1="2220" y1="327.5" x2="2860" y2="327.5" stroke="#eee" stroke-width="1"/>
<text x="2214" y="330.5" font-family="sans-serif" font-size="9" text-anchor="end" fill="#666">0.64</text>
<line x1="2220" y1="290.0" x2="2860" y2="290.0" stroke="#eee" stroke-width="1"/>
<text x="2214" y="293.0" font-family="sans-serif" font-size="9" text-anchor="end" fill="#666">0.69</text>
<polygon points="2220.0,328.1 2860.0,335.4 2860.0,401.9 2220.0,394.9" fill="#1f77b4" fill-opacity="0.12" stroke="none"/>
<polyline points="2220.0,361.5 2860.0,368.7" fill="none" stroke="#1f77b4" stroke-width="2"/>
<circle cx="2220.0" cy="361.5" r="3" fill="#1f77b4"/>
<text x="2220.0" y="353.5" font-family="sans-serif" font-size="9" text-anchor="middle" fill="#1f77b4">0.595</text>
<text x="2220.0" y="455.0" font-family="sans-serif" font-size="10" text-anchor="middle" fill="#444">0.2.1</text>
<circle cx="2860.0" cy="368.7" r="3" fill="#1f77b4"/>
<text x="2860.0" y="360.7" font-family="sans-serif" font-size="9" text-anchor="middle" fill="#1f77b4">0.586</text>
<text x="2860.0" y="455.0" font-family="sans-serif" font-size="10" text-anchor="middle" fill="#444">0.3.0</text>
<text x="60" y="500" font-family="sans-serif" font-size="12" font-weight="bold">multi_hop / recall@5</text>
<line x1="60" y1="660" x2="700" y2="660" stroke="#eee" stroke-width="1"/>
<text x="54" y="663" font-family="sans-serif" font-size="9" text-anchor="end" fill="#666">0.57</text>
<line x1="60" y1="622.5" x2="700" y2="622.5" stroke="#eee" stroke-width="1"/>
<text x="54" y="625.5" font-family="sans-serif" font-size="9" text-anchor="end" fill="#666">0.62</text>
<line x1="60" y1="585.0" x2="700" y2="585.0" stroke="#eee" stroke-width="1"/>
<text x="54" y="588.0" font-family="sans-serif" font-size="9" text-anchor="end" fill="#666">0.68</text>
<line x1="60" y1="547.5" x2="700" y2="547.5" stroke="#eee" stroke-width="1"/>
<text x="54" y="550.5" font-family="sans-serif" font-size="9" text-anchor="end" fill="#666">0.73</text>
<line x1="60" y1="510.0" x2="700" y2="510.0" stroke="#eee" stroke-width="1"/>
<text x="54" y="513.0" font-family="sans-serif" font-size="9" text-anchor="end" fill="#666">0.78</text>
<polygon points="60.0,545.4 700.0,553.5 700.0,624.6 60.0,615.9" fill="#ff7f0e" fill-opacity="0.12" stroke="none"/>
<polyline points="60.0,580.7 700.0,589.1" fill="none" stroke="#ff7f0e" stroke-width="2"/>
<circle cx="60.0" cy="580.7" r="3" fill="#ff7f0e"/>
<text x="60.0" y="572.7" font-family="sans-serif" font-size="9" text-anchor="middle" fill="#ff7f0e">0.682</text>
<text x="60.0" y="675.0" font-family="sans-serif" font-size="10" text-anchor="middle" fill="#444">0.2.1</text>
<circle cx="700.0" cy="589.1" r="3" fill="#ff7f0e"/>
<text x="700.0" y="581.1" font-family="sans-serif" font-size="9" text-anchor="middle" fill="#ff7f0e">0.670</text>
<text x="700.0" y="675.0" font-family="sans-serif" font-size="10" text-anchor="middle" fill="#444">0.3.0</text>
<text x="380.0" y="522" font-family="sans-serif" font-size="10" fill="#d62728" text-anchor="middle">-1.2pp</text>
<text x="780" y="500" font-family="sans-serif" font-size="12" font-weight="bold">multi_hop / recall@10</text>
<line x1="780" y1="660" x2="1420" y2="660" stroke="#eee" stroke-width="1"/>
<text x="774" y="663" font-family="sans-serif" font-size="9" text-anchor="end" fill="#666">0.74</text>
<line x1="780" y1="622.5" x2="1420" y2="622.5" stroke="#eee" stroke-width="1"/>
<text x="774" y="625.5" font-family="sans-serif" font-size="9" text-anchor="end" fill="#666">0.78</text>
<line x1="780" y1="585.0" x2="1420" y2="585.0" stroke="#eee" stroke-width="1"/>
<text x="774" y="588.0" font-family="sans-serif" font-size="9" text-anchor="end" fill="#666">0.83</text>
<line x1="780" y1="547.5" x2="1420" y2="547.5" stroke="#eee" stroke-width="1"/>
<text x="774" y="550.5" font-family="sans-serif" font-size="9" text-anchor="end" fill="#666">0.88</text>
<line x1="780" y1="510.0" x2="1420" y2="510.0" stroke="#eee" stroke-width="1"/>
<text x="774" y="513.0" font-family="sans-serif" font-size="9" text-anchor="end" fill="#666">0.92</text>
<polygon points="780.0,550.0 1420.0,555.3 1420.0,620.0 780.0,612.9" fill="#ff7f0e" fill-opacity="0.12" stroke="none"/>
<polyline points="780.0,581.4 1420.0,587.6" fill="none" stroke="#ff7f0e" stroke-width="2"/>
<circle cx="780.0" cy="581.4" r="3" fill="#ff7f0e"/>
<text x="780.0" y="573.4" font-family="sans-serif" font-size="9" text-anchor="middle" fill="#ff7f0e">0.834</text>
<text x="780.0" y="675.0" font-family="sans-serif" font-size="10" text-anchor="middle" fill="#444">0.2.1</text>
<circle cx="1420.0" cy="587.6" r="3" fill="#ff7f0e"/>
<text x="1420.0" y="579.6" font-family="sans-serif" font-size="9" text-anchor="middle" fill="#ff7f0e">0.827</text>
<text x="1420.0" y="675.0" font-family="sans-serif" font-size="10" text-anchor="middle" fill="#444">0.3.0</text>
<text x="1500" y="500" font-family="sans-serif" font-size="12" font-weight="bold">multi_hop / recall@25</text>
<line x1="1500" y1="660" x2="2140" y2="660" stroke="#eee" stroke-width="1"/>
<text x="1494" y="663" font-family="sans-serif" font-size="9" text-anchor="end" fill="#666">0.92</text>
<line x1="1500" y1="622.5" x2="2140" y2="622.5" stroke="#eee" stroke-width="1"/>
<text x="1494" y="625.5" font-family="sans-serif" font-size="9" text-anchor="end" fill="#666">0.94</text>
<line x1="1500" y1="585.0" x2="2140" y2="585.0" stroke="#eee" stroke-width="1"/>
<text x="1494" y="588.0" font-family="sans-serif" font-size="9" text-anchor="end" fill="#666">0.96</text>
<line x1="1500" y1="547.5" x2="2140" y2="547.5" stroke="#eee" stroke-width="1"/>
<text x="1494" y="550.5" font-family="sans-serif" font-size="9" text-anchor="end" fill="#666">0.98</text>
<line x1="1500" y1="510.0" x2="2140" y2="510.0" stroke="#eee" stroke-width="1"/>
<text x="1494" y="513.0" font-family="sans-serif" font-size="9" text-anchor="end" fill="#666">1.00</text>
<polygon points="1500.0,513.8 2140.0,510.0 2140.0,551.5 1500.0,565.2" fill="#ff7f0e" fill-opacity="0.12" stroke="none"/>
<polyline points="1500.0,539.6 2140.0,530.7" fill="none" stroke="#ff7f0e" stroke-width="2"/>
<circle cx="1500.0" cy="539.6" r="3" fill="#ff7f0e"/>
<text x="1500.0" y="531.6" font-family="sans-serif" font-size="9" text-anchor="middle" fill="#ff7f0e">0.984</text>
<text x="1500.0" y="675.0" font-family="sans-serif" font-size="10" text-anchor="middle" fill="#444">0.2.1</text>
<circle cx="2140.0" cy="530.7" r="3" fill="#ff7f0e"/>
<text x="2140.0" y="522.7" font-family="sans-serif" font-size="9" text-anchor="middle" fill="#ff7f0e">0.989</text>
<text x="2140.0" y="675.0" font-family="sans-serif" font-size="10" text-anchor="middle" fill="#444">0.3.0</text>
<text x="2220" y="500" font-family="sans-serif" font-size="12" font-weight="bold">multi_hop / mrr</text>
<line x1="2220" y1="660" x2="2860" y2="660" stroke="#eee" stroke-width="1"/>
<text x="2214" y="663" font-family="sans-serif" font-size="9" text-anchor="end" fill="#666">0.45</text>
<line x1="2220" y1="622.5" x2="2860" y2="622.5" stroke="#eee" stroke-width="1"/>
<text x="2214" y="625.5" font-family="sans-serif" font-size="9" text-anchor="end" fill="#666">0.50</text>
<line x1="2220" y1="585.0" x2="2860" y2="585.0" stroke="#eee" stroke-width="1"/>
<text x="2214" y="588.0" font-family="sans-serif" font-size="9" text-anchor="end" fill="#666">0.55</text>
<line x1="2220" y1="547.5" x2="2860" y2="547.5" stroke="#eee" stroke-width="1"/>
<text x="2214" y="550.5" font-family="sans-serif" font-size="9" text-anchor="end" fill="#666">0.60</text>
<line x1="2220" y1="510.0" x2="2860" y2="510.0" stroke="#eee" stroke-width="1"/>
<text x="2214" y="513.0" font-family="sans-serif" font-size="9" text-anchor="end" fill="#666">0.65</text>
<polygon points="2220.0,558.7 2860.0,546.9 2860.0,611.9 2220.0,623.1" fill="#ff7f0e" fill-opacity="0.12" stroke="none"/>
<polyline points="2220.0,590.9 2860.0,579.4" fill="none" stroke="#ff7f0e" stroke-width="2"/>
<circle cx="2220.0" cy="590.9" r="3" fill="#ff7f0e"/>
<text x="2220.0" y="582.9" font-family="sans-serif" font-size="9" text-anchor="middle" fill="#ff7f0e">0.543</text>
<text x="2220.0" y="675.0" font-family="sans-serif" font-size="10" text-anchor="middle" fill="#444">0.2.1</text>
<circle cx="2860.0" cy="579.4" r="3" fill="#ff7f0e"/>
<text x="2860.0" y="571.4" font-family="sans-serif" font-size="9" text-anchor="middle" fill="#ff7f0e">0.559</text>
<text x="2860.0" y="675.0" font-family="sans-serif" font-size="10" text-anchor="middle" fill="#444">0.3.0</text>
<text x="2540.0" y="522" font-family="sans-serif" font-size="10" fill="#2ca02c" text-anchor="middle">+1.6pp</text>
<text x="60" y="720" font-family="sans-serif" font-size="12" font-weight="bold">temporal / recall@5</text>
<line x1="60" y1="880" x2="700" y2="880" stroke="#eee" stroke-width="1"/>
<text x="54" y="883" font-family="sans-serif" font-size="9" text-anchor="end" fill="#666">0.30</text>
<line x1="60" y1="842.5" x2="700" y2="842.5" stroke="#eee" stroke-width="1"/>
<text x="54" y="845.5" font-family="sans-serif" font-size="9" text-anchor="end" fill="#666">0.38</text>
<line x1="60" y1="805.0" x2="700" y2="805.0" stroke="#eee" stroke-width="1"/>
<text x="54" y="808.0" font-family="sans-serif" font-size="9" text-anchor="end" fill="#666">0.46</text>
<line x1="60" y1="767.5" x2="700" y2="767.5" stroke="#eee" stroke-width="1"/>
<text x="54" y="770.5" font-family="sans-serif" font-size="9" text-anchor="end" fill="#666">0.54</text>
<line x1="60" y1="730.0" x2="700" y2="730.0" stroke="#eee" stroke-width="1"/>
<text x="54" y="733.0" font-family="sans-serif" font-size="9" text-anchor="end" fill="#666">0.62</text>
<polygon points="60.0,753.6 700.0,771.2 700.0,856.4 60.0,838.2" fill="#d62728" fill-opacity="0.12" stroke="none"/>
<polyline points="60.0,795.8 700.0,813.8" fill="none" stroke="#d62728" stroke-width="2"/>
<circle cx="60.0" cy="795.8" r="3" fill="#d62728"/>
<text x="60.0" y="787.8" font-family="sans-serif" font-size="9" text-anchor="middle" fill="#d62728">0.482</text>
<text x="60.0" y="895.0" font-family="sans-serif" font-size="10" text-anchor="middle" fill="#444">0.2.1</text>
<circle cx="700.0" cy="813.8" r="3" fill="#d62728"/>
<text x="700.0" y="805.8" font-family="sans-serif" font-size="9" text-anchor="middle" fill="#d62728">0.444</text>
<text x="700.0" y="895.0" font-family="sans-serif" font-size="10" text-anchor="middle" fill="#444">0.3.0</text>
<text x="380.0" y="742" font-family="sans-serif" font-size="10" fill="#d62728" text-anchor="middle">-3.8pp</text>
<text x="780" y="720" font-family="sans-serif" font-size="12" font-weight="bold">temporal / recall@10</text>
<line x1="780" y1="880" x2="1420" y2="880" stroke="#eee" stroke-width="1"/>
<text x="774" y="883" font-family="sans-serif" font-size="9" text-anchor="end" fill="#666">0.51</text>
<line x1="780" y1="842.5" x2="1420" y2="842.5" stroke="#eee" stroke-width="1"/>
<text x="774" y="845.5" font-family="sans-serif" font-size="9" text-anchor="end" fill="#666">0.58</text>
<line x1="780" y1="805.0" x2="1420" y2="805.0" stroke="#eee" stroke-width="1"/>
<text x="774" y="808.0" font-family="sans-serif" font-size="9" text-anchor="end" fill="#666">0.65</text>
<line x1="780" y1="767.5" x2="1420" y2="767.5" stroke="#eee" stroke-width="1"/>
<text x="774" y="770.5" font-family="sans-serif" font-size="9" text-anchor="end" fill="#666">0.72</text>
<line x1="780" y1="730.0" x2="1420" y2="730.0" stroke="#eee" stroke-width="1"/>
<text x="774" y="733.0" font-family="sans-serif" font-size="9" text-anchor="end" fill="#666">0.80</text>
<polygon points="780.0,756.1 1420.0,764.3 1420.0,853.9 780.0,846.6" fill="#d62728" fill-opacity="0.12" stroke="none"/>
<polyline points="780.0,801.4 1420.0,809.1" fill="none" stroke="#d62728" stroke-width="2"/>
<circle cx="780.0" cy="801.4" r="3" fill="#d62728"/>
<text x="780.0" y="793.4" font-family="sans-serif" font-size="9" text-anchor="middle" fill="#d62728">0.660</text>
<text x="780.0" y="895.0" font-family="sans-serif" font-size="10" text-anchor="middle" fill="#444">0.2.1</text>
<circle cx="1420.0" cy="809.1" r="3" fill="#d62728"/>
<text x="1420.0" y="801.1" font-family="sans-serif" font-size="9" text-anchor="middle" fill="#d62728">0.645</text>
<text x="1420.0" y="895.0" font-family="sans-serif" font-size="10" text-anchor="middle" fill="#444">0.3.0</text>
<text x="1100.0" y="742" font-family="sans-serif" font-size="10" fill="#d62728" text-anchor="middle">-1.5pp</text>
<text x="1500" y="720" font-family="sans-serif" font-size="12" font-weight="bold">temporal / recall@25</text>
<line x1="1500" y1="880" x2="2140" y2="880" stroke="#eee" stroke-width="1"/>
<text x="1494" y="883" font-family="sans-serif" font-size="9" text-anchor="end" fill="#666">0.82</text>
<line x1="1500" y1="842.5" x2="2140" y2="842.5" stroke="#eee" stroke-width="1"/>
<text x="1494" y="845.5" font-family="sans-serif" font-size="9" text-anchor="end" fill="#666">0.87</text>
<line x1="1500" y1="805.0" x2="2140" y2="805.0" stroke="#eee" stroke-width="1"/>
<text x="1494" y="808.0" font-family="sans-serif" font-size="9" text-anchor="end" fill="#666">0.91</text>
<line x1="1500" y1="767.5" x2="2140" y2="767.5" stroke="#eee" stroke-width="1"/>
<text x="1494" y="770.5" font-family="sans-serif" font-size="9" text-anchor="end" fill="#666">0.96</text>
<line x1="1500" y1="730.0" x2="2140" y2="730.0" stroke="#eee" stroke-width="1"/>
<text x="1494" y="733.0" font-family="sans-serif" font-size="9" text-anchor="end" fill="#666">1.00</text>
<polygon points="1500.0,748.6 2140.0,746.9 2140.0,834.2 1500.0,837.1" fill="#d62728" fill-opacity="0.12" stroke="none"/>
<polyline points="1500.0,792.9 2140.0,790.6" fill="none" stroke="#d62728" stroke-width="2"/>
<circle cx="1500.0" cy="792.9" r="3" fill="#d62728"/>
<text x="1500.0" y="784.9" font-family="sans-serif" font-size="9" text-anchor="middle" fill="#d62728">0.927</text>
<text x="1500.0" y="895.0" font-family="sans-serif" font-size="10" text-anchor="middle" fill="#444">0.2.1</text>
<circle cx="2140.0" cy="790.6" r="3" fill="#d62728"/>
<text x="2140.0" y="782.6" font-family="sans-serif" font-size="9" text-anchor="middle" fill="#d62728">0.929</text>
<text x="2140.0" y="895.0" font-family="sans-serif" font-size="10" text-anchor="middle" fill="#444">0.3.0</text>
<text x="2220" y="720" font-family="sans-serif" font-size="12" font-weight="bold">temporal / mrr</text>
<line x1="2220" y1="880" x2="2860" y2="880" stroke="#eee" stroke-width="1"/>
<text x="2214" y="883" font-family="sans-serif" font-size="9" text-anchor="end" fill="#666">0.26</text>
<line x1="2220" y1="842.5" x2="2860" y2="842.5" stroke="#eee" stroke-width="1"/>
<text x="2214" y="845.5" font-family="sans-serif" font-size="9" text-anchor="end" fill="#666">0.33</text>
<line x1="2220" y1="805.0" x2="2860" y2="805.0" stroke="#eee" stroke-width="1"/>
<text x="2214" y="808.0" font-family="sans-serif" font-size="9" text-anchor="end" fill="#666">0.39</text>
<line x1="2220" y1="767.5" x2="2860" y2="767.5" stroke="#eee" stroke-width="1"/>
<text x="2214" y="770.5" font-family="sans-serif" font-size="9" text-anchor="end" fill="#666">0.46</text>
<line x1="2220" y1="730.0" x2="2860" y2="730.0" stroke="#eee" stroke-width="1"/>
<text x="2214" y="733.0" font-family="sans-serif" font-size="9" text-anchor="end" fill="#666">0.53</text>
<polygon points="2220.0,758.4 2860.0,769.3 2860.0,851.6 2220.0,843.2" fill="#d62728" fill-opacity="0.12" stroke="none"/>
<polyline points="2220.0,800.8 2860.0,810.5" fill="none" stroke="#d62728" stroke-width="2"/>
<circle cx="2220.0" cy="800.8" r="3" fill="#d62728"/>
<text x="2220.0" y="792.8" font-family="sans-serif" font-size="9" text-anchor="middle" fill="#d62728">0.401</text>
<text x="2220.0" y="895.0" font-family="sans-serif" font-size="10" text-anchor="middle" fill="#444">0.2.1</text>
<circle cx="2860.0" cy="810.5" r="3" fill="#d62728"/>
<text x="2860.0" y="802.5" font-family="sans-serif" font-size="9" text-anchor="middle" fill="#d62728">0.384</text>
<text x="2860.0" y="895.0" font-family="sans-serif" font-size="10" text-anchor="middle" fill="#444">0.3.0</text>
<text x="2540.0" y="742" font-family="sans-serif" font-size="10" fill="#d62728" text-anchor="middle">-1.7pp</text>
<text x="60" y="940" font-family="sans-serif" font-size="12" font-weight="bold">open_domain / recall@5</text>
<line x1="60" y1="1100" x2="700" y2="1100" stroke="#eee" stroke-width="1"/>
<text x="54" y="1103" font-family="sans-serif" font-size="9" text-anchor="end" fill="#666">0.62</text>
<line x1="60" y1="1062.5" x2="700" y2="1062.5" stroke="#eee" stroke-width="1"/>
<text x="54" y="1065.5" font-family="sans-serif" font-size="9" text-anchor="end" fill="#666">0.66</text>
<line x1="60" y1="1025.0" x2="700" y2="1025.0" stroke="#eee" stroke-width="1"/>
<text x="54" y="1028.0" font-family="sans-serif" font-size="9" text-anchor="end" fill="#666">0.71</text>
<line x1="60" y1="987.5" x2="700" y2="987.5" stroke="#eee" stroke-width="1"/>
<text x="54" y="990.5" font-family="sans-serif" font-size="9" text-anchor="end" fill="#666">0.75</text>
<line x1="60" y1="950.0" x2="700" y2="950.0" stroke="#eee" stroke-width="1"/>
<text x="54" y="953.0" font-family="sans-serif" font-size="9" text-anchor="end" fill="#666">0.80</text>
<polygon points="60.0,1005.7 700.0,992.1 700.0,1043.4 60.0,1057.9" fill="#2ca02c" fill-opacity="0.12" stroke="none"/>
<polyline points="60.0,1031.7 700.0,1017.8" fill="none" stroke="#2ca02c" stroke-width="2"/>
<circle cx="60.0" cy="1031.7" r="3" fill="#2ca02c"/>
<text x="60.0" y="1023.7" font-family="sans-serif" font-size="9" text-anchor="middle" fill="#2ca02c">0.701</text>
<text x="60.0" y="1115.0" font-family="sans-serif" font-size="10" text-anchor="middle" fill="#444">0.2.1</text>
<circle cx="700.0" cy="1017.8" r="3" fill="#2ca02c"/>
<text x="700.0" y="1009.8" font-family="sans-serif" font-size="9" text-anchor="middle" fill="#2ca02c">0.718</text>
<text x="700.0" y="1115.0" font-family="sans-serif" font-size="10" text-anchor="middle" fill="#444">0.3.0</text>
<text x="380.0" y="962" font-family="sans-serif" font-size="10" fill="#2ca02c" text-anchor="middle">+1.7pp</text>
<text x="780" y="940" font-family="sans-serif" font-size="12" font-weight="bold">open_domain / recall@10</text>
<line x1="780" y1="1100" x2="1420" y2="1100" stroke="#eee" stroke-width="1"/>
<text x="774" y="1103" font-family="sans-serif" font-size="9" text-anchor="end" fill="#666">0.74</text>
<line x1="780" y1="1062.5" x2="1420" y2="1062.5" stroke="#eee" stroke-width="1"/>
<text x="774" y="1065.5" font-family="sans-serif" font-size="9" text-anchor="end" fill="#666">0.79</text>
<line x1="780" y1="1025.0" x2="1420" y2="1025.0" stroke="#eee" stroke-width="1"/>
<text x="774" y="1028.0" font-family="sans-serif" font-size="9" text-anchor="end" fill="#666">0.83</text>
<line x1="780" y1="987.5" x2="1420" y2="987.5" stroke="#eee" stroke-width="1"/>
<text x="774" y="990.5" font-family="sans-serif" font-size="9" text-anchor="end" fill="#666">0.87</text>
<line x1="780" y1="950.0" x2="1420" y2="950.0" stroke="#eee" stroke-width="1"/>
<text x="774" y="953.0" font-family="sans-serif" font-size="9" text-anchor="end" fill="#666">0.91</text>
<polygon points="780.0,1010.2 1420.0,994.0 1420.0,1037.7 780.0,1056.0" fill="#2ca02c" fill-opacity="0.12" stroke="none"/>
<polyline points="780.0,1033.0 1420.0,1015.8" fill="none" stroke="#2ca02c" stroke-width="2"/>
<circle cx="780.0" cy="1033.0" r="3" fill="#2ca02c"/>
<text x="780.0" y="1025.0" font-family="sans-serif" font-size="9" text-anchor="middle" fill="#2ca02c">0.819</text>
<text x="780.0" y="1115.0" font-family="sans-serif" font-size="10" text-anchor="middle" fill="#444">0.2.1</text>
<circle cx="1420.0" cy="1015.8" r="3" fill="#2ca02c"/>
<text x="1420.0" y="1007.8" font-family="sans-serif" font-size="9" text-anchor="middle" fill="#2ca02c">0.838</text>
<text x="1420.0" y="1115.0" font-family="sans-serif" font-size="10" text-anchor="middle" fill="#444">0.3.0</text>
<text x="1100.0" y="962" font-family="sans-serif" font-size="10" fill="#2ca02c" text-anchor="middle">+2.0pp</text>
<text x="1500" y="940" font-family="sans-serif" font-size="12" font-weight="bold">open_domain / recall@25</text>
<line x1="1500" y1="1100" x2="2140" y2="1100" stroke="#eee" stroke-width="1"/>
<text x="1494" y="1103" font-family="sans-serif" font-size="9" text-anchor="end" fill="#666">0.90</text>
<line x1="1500" y1="1062.5" x2="2140" y2="1062.5" stroke="#eee" stroke-width="1"/>
<text x="1494" y="1065.5" font-family="sans-serif" font-size="9" text-anchor="end" fill="#666">0.93</text>
<line x1="1500" y1="1025.0" x2="2140" y2="1025.0" stroke="#eee" stroke-width="1"/>
<text x="1494" y="1028.0" font-family="sans-serif" font-size="9" text-anchor="end" fill="#666">0.95</text>
<line x1="1500" y1="987.5" x2="2140" y2="987.5" stroke="#eee" stroke-width="1"/>
<text x="1494" y="990.5" font-family="sans-serif" font-size="9" text-anchor="end" fill="#666">0.98</text>
<line x1="1500" y1="950.0" x2="2140" y2="950.0" stroke="#eee" stroke-width="1"/>
<text x="1494" y="953.0" font-family="sans-serif" font-size="9" text-anchor="end" fill="#666">1.00</text>
<polygon points="1500.0,983.9 2140.0,980.9 2140.0,1017.6 1500.0,1022.0" fill="#2ca02c" fill-opacity="0.12" stroke="none"/>
<polyline points="1500.0,1002.9 2140.0,999.2" fill="none" stroke="#2ca02c" stroke-width="2"/>
<circle cx="1500.0" cy="1002.9" r="3" fill="#2ca02c"/>
<text x="1500.0" y="994.9" font-family="sans-serif" font-size="9" text-anchor="middle" fill="#2ca02c">0.966</text>
<text x="1500.0" y="1115.0" font-family="sans-serif" font-size="10" text-anchor="middle" fill="#444">0.2.1</text>
<circle cx="2140.0" cy="999.2" r="3" fill="#2ca02c"/>
<text x="2140.0" y="991.2" font-family="sans-serif" font-size="9" text-anchor="middle" fill="#2ca02c">0.969</text>
<text x="2140.0" y="1115.0" font-family="sans-serif" font-size="10" text-anchor="middle" fill="#444">0.3.0</text>
<text x="2220" y="940" font-family="sans-serif" font-size="12" font-weight="bold">open_domain / mrr</text>
<line x1="2220" y1="1100" x2="2860" y2="1100" stroke="#eee" stroke-width="1"/>
<text x="2214" y="1103" font-family="sans-serif" font-size="9" text-anchor="end" fill="#666">0.47</text>
<line x1="2220" y1="1062.5" x2="2860" y2="1062.5" stroke="#eee" stroke-width="1"/>
<text x="2214" y="1065.5" font-family="sans-serif" font-size="9" text-anchor="end" fill="#666">0.52</text>
<line x1="2220" y1="1025.0" x2="2860" y2="1025.0" stroke="#eee" stroke-width="1"/>
<text x="2214" y="1028.0" font-family="sans-serif" font-size="9" text-anchor="end" fill="#666">0.56</text>
<line x1="2220" y1="987.5" x2="2860" y2="987.5" stroke="#eee" stroke-width="1"/>
<text x="2214" y="990.5" font-family="sans-serif" font-size="9" text-anchor="end" fill="#666">0.60</text>
<line x1="2220" y1="950.0" x2="2860" y2="950.0" stroke="#eee" stroke-width="1"/>
<text x="2214" y="953.0" font-family="sans-serif" font-size="9" text-anchor="end" fill="#666">0.65</text>
<polygon points="2220.0,1010.3 2860.0,993.1 2860.0,1039.6 2220.0,1056.9" fill="#2ca02c" fill-opacity="0.12" stroke="none"/>
<polyline points="2220.0,1033.6 2860.0,1016.4" fill="none" stroke="#2ca02c" stroke-width="2"/>
<circle cx="2220.0" cy="1033.6" r="3" fill="#2ca02c"/>
<text x="2220.0" y="1025.6" font-family="sans-serif" font-size="9" text-anchor="middle" fill="#2ca02c">0.549</text>
<text x="2220.0" y="1115.0" font-family="sans-serif" font-size="10" text-anchor="middle" fill="#444">0.2.1</text>
<circle cx="2860.0" cy="1016.4" r="3" fill="#2ca02c"/>
<text x="2860.0" y="1008.4" font-family="sans-serif" font-size="9" text-anchor="middle" fill="#2ca02c">0.569</text>
<text x="2860.0" y="1115.0" font-family="sans-serif" font-size="10" text-anchor="middle" fill="#444">0.3.0</text>
<text x="2540.0" y="962" font-family="sans-serif" font-size="10" fill="#2ca02c" text-anchor="middle">+2.0pp</text>
<text x="60" y="1160" font-family="sans-serif" font-size="12" font-weight="bold">adversarial / recall@5</text>
<line x1="60" y1="1320" x2="700" y2="1320" stroke="#eee" stroke-width="1"/>
<text x="54" y="1323" font-family="sans-serif" font-size="9" text-anchor="end" fill="#666">0.62</text>
<line x1="60" y1="1282.5" x2="700" y2="1282.5" stroke="#eee" stroke-width="1"/>
<text x="54" y="1285.5" font-family="sans-serif" font-size="9" text-anchor="end" fill="#666">0.67</text>
<line x1="60" y1="1245.0" x2="700" y2="1245.0" stroke="#eee" stroke-width="1"/>
<text x="54" y="1248.0" font-family="sans-serif" font-size="9" text-anchor="end" fill="#666">0.71</text>
<line x1="60" y1="1207.5" x2="700" y2="1207.5" stroke="#eee" stroke-width="1"/>
<text x="54" y="1210.5" font-family="sans-serif" font-size="9" text-anchor="end" fill="#666">0.76</text>
<line x1="60" y1="1170.0" x2="700" y2="1170.0" stroke="#eee" stroke-width="1"/>
<text x="54" y="1173.0" font-family="sans-serif" font-size="9" text-anchor="end" fill="#666">0.81</text>
<polygon points="60.0,1212.1 700.0,1210.3 700.0,1277.9 60.0,1279.7" fill="#9467bd" fill-opacity="0.12" stroke="none"/>
<polyline points="60.0,1245.9 700.0,1244.1" fill="none" stroke="#9467bd" stroke-width="2"/>
<circle cx="60.0" cy="1245.9" r="3" fill="#9467bd"/>
<text x="60.0" y="1237.9" font-family="sans-serif" font-size="9" text-anchor="middle" fill="#9467bd">0.713</text>
<text x="60.0" y="1335.0" font-family="sans-serif" font-size="10" text-anchor="middle" fill="#444">0.2.1</text>
<circle cx="700.0" cy="1244.1" r="3" fill="#9467bd"/>
<text x="700.0" y="1236.1" font-family="sans-serif" font-size="9" text-anchor="middle" fill="#9467bd">0.715</text>
<text x="700.0" y="1335.0" font-family="sans-serif" font-size="10" text-anchor="middle" fill="#444">0.3.0</text>
<text x="780" y="1160" font-family="sans-serif" font-size="12" font-weight="bold">adversarial / recall@10</text>
<line x1="780" y1="1320" x2="1420" y2="1320" stroke="#eee" stroke-width="1"/>
<text x="774" y="1323" font-family="sans-serif" font-size="9" text-anchor="end" fill="#666">0.73</text>
<line x1="780" y1="1282.5" x2="1420" y2="1282.5" stroke="#eee" stroke-width="1"/>
<text x="774" y="1285.5" font-family="sans-serif" font-size="9" text-anchor="end" fill="#666">0.78</text>
<line x1="780" y1="1245.0" x2="1420" y2="1245.0" stroke="#eee" stroke-width="1"/>
<text x="774" y="1248.0" font-family="sans-serif" font-size="9" text-anchor="end" fill="#666">0.82</text>
<line x1="780" y1="1207.5" x2="1420" y2="1207.5" stroke="#eee" stroke-width="1"/>
<text x="774" y="1210.5" font-family="sans-serif" font-size="9" text-anchor="end" fill="#666">0.86</text>
<line x1="780" y1="1170.0" x2="1420" y2="1170.0" stroke="#eee" stroke-width="1"/>
<text x="774" y="1173.0" font-family="sans-serif" font-size="9" text-anchor="end" fill="#666">0.91</text>
<polygon points="780.0,1212.7 1420.0,1216.2 1420.0,1277.3 780.0,1273.2" fill="#9467bd" fill-opacity="0.12" stroke="none"/>
<polyline points="780.0,1242.9 1420.0,1246.8" fill="none" stroke="#9467bd" stroke-width="2"/>
<circle cx="780.0" cy="1242.9" r="3" fill="#9467bd"/>
<text x="780.0" y="1234.9" font-family="sans-serif" font-size="9" text-anchor="middle" fill="#9467bd">0.823</text>
<text x="780.0" y="1335.0" font-family="sans-serif" font-size="10" text-anchor="middle" fill="#444">0.2.1</text>
<circle cx="1420.0" cy="1246.8" r="3" fill="#9467bd"/>
<text x="1420.0" y="1238.8" font-family="sans-serif" font-size="9" text-anchor="middle" fill="#9467bd">0.818</text>
<text x="1420.0" y="1335.0" font-family="sans-serif" font-size="10" text-anchor="middle" fill="#444">0.3.0</text>
<text x="1500" y="1160" font-family="sans-serif" font-size="12" font-weight="bold">adversarial / recall@25</text>
<line x1="1500" y1="1320" x2="2140" y2="1320" stroke="#eee" stroke-width="1"/>
<text x="1494" y="1323" font-family="sans-serif" font-size="9" text-anchor="end" fill="#666">0.90</text>
<line x1="1500" y1="1282.5" x2="2140" y2="1282.5" stroke="#eee" stroke-width="1"/>
<text x="1494" y="1285.5" font-family="sans-serif" font-size="9" text-anchor="end" fill="#666">0.92</text>
<line x1="1500" y1="1245.0" x2="2140" y2="1245.0" stroke="#eee" stroke-width="1"/>
<text x="1494" y="1248.0" font-family="sans-serif" font-size="9" text-anchor="end" fill="#666">0.95</text>
<line x1="1500" y1="1207.5" x2="2140" y2="1207.5" stroke="#eee" stroke-width="1"/>
<text x="1494" y="1210.5" font-family="sans-serif" font-size="9" text-anchor="end" fill="#666">0.97</text>
<line x1="1500" y1="1170.0" x2="2140" y2="1170.0" stroke="#eee" stroke-width="1"/>
<text x="1494" y="1173.0" font-family="sans-serif" font-size="9" text-anchor="end" fill="#666">1.00</text>
<polygon points="1500.0,1197.0 2140.0,1197.0 2140.0,1247.3 1500.0,1247.3" fill="#9467bd" fill-opacity="0.12" stroke="none"/>
<polyline points="1500.0,1222.2 2140.0,1222.2" fill="none" stroke="#9467bd" stroke-width="2"/>
<circle cx="1500.0" cy="1222.2" r="3" fill="#9467bd"/>
<text x="1500.0" y="1214.2" font-family="sans-serif" font-size="9" text-anchor="middle" fill="#9467bd">0.964</text>
<text x="1500.0" y="1335.0" font-family="sans-serif" font-size="10" text-anchor="middle" fill="#444">0.2.1</text>
<circle cx="2140.0" cy="1222.2" r="3" fill="#9467bd"/>
<text x="2140.0" y="1214.2" font-family="sans-serif" font-size="9" text-anchor="middle" fill="#9467bd">0.964</text>
<text x="2140.0" y="1335.0" font-family="sans-serif" font-size="10" text-anchor="middle" fill="#444">0.3.0</text>
<text x="2220" y="1160" font-family="sans-serif" font-size="12" font-weight="bold">adversarial / mrr</text>
<line x1="2220" y1="1320" x2="2860" y2="1320" stroke="#eee" stroke-width="1"/>
<text x="2214" y="1323" font-family="sans-serif" font-size="9" text-anchor="end" fill="#666">0.46</text>
<line x1="2220" y1="1282.5" x2="2860" y2="1282.5" stroke="#eee" stroke-width="1"/>
<text x="2214" y="1285.5" font-family="sans-serif" font-size="9" text-anchor="end" fill="#666">0.51</text>
<line x1="2220" y1="1245.0" x2="2860" y2="1245.0" stroke="#eee" stroke-width="1"/>
<text x="2214" y="1248.0" font-family="sans-serif" font-size="9" text-anchor="end" fill="#666">0.55</text>
<line x1="2220" y1="1207.5" x2="2860" y2="1207.5" stroke="#eee" stroke-width="1"/>
<text x="2214" y="1210.5" font-family="sans-serif" font-size="9" text-anchor="end" fill="#666">0.59</text>
<line x1="2220" y1="1170.0" x2="2860" y2="1170.0" stroke="#eee" stroke-width="1"/>
<text x="2214" y="1173.0" font-family="sans-serif" font-size="9" text-anchor="end" fill="#666">0.64</text>
<polygon points="2220.0,1213.1 2860.0,1213.0 2860.0,1276.8 2220.0,1277.0" fill="#9467bd" fill-opacity="0.12" stroke="none"/>
<polyline points="2220.0,1245.0 2860.0,1244.9" fill="none" stroke="#9467bd" stroke-width="2"/>
<circle cx="2220.0" cy="1245.0" r="3" fill="#9467bd"/>
<text x="2220.0" y="1237.0" font-family="sans-serif" font-size="9" text-anchor="middle" fill="#9467bd">0.550</text>
<text x="2220.0" y="1335.0" font-family="sans-serif" font-size="10" text-anchor="middle" fill="#444">0.2.1</text>
<circle cx="2860.0" cy="1244.9" r="3" fill="#9467bd"/>
<text x="2860.0" y="1236.9" font-family="sans-serif" font-size="9" text-anchor="middle" fill="#9467bd">0.551</text>
<text x="2860.0" y="1335.0" font-family="sans-serif" font-size="10" text-anchor="middle" fill="#444">0.3.0</text>
</svg>